<?xml version="1.0" standalone="no"?>
<!DOCTYPE svg PUBLIC "-//W3C//DTD SVG 20010904//EN"
 "http://www.w3.org/TR/2001/REC-SVG-20010904/DTD/svg10.dtd">
<svg version="1.0" xmlns="http://www.w3.org/2000/svg"
 width="700.000000pt" height="700.000000pt" viewBox="0 0 700.000000 700.000000"
 preserveAspectRatio="xMidYMid meet">
<metadata>
Created by potrace 1.14, written by Peter Selinger 2001-2017
</metadata>
<g transform="translate(0.000000,700.000000) scale(0.100000,-0.100000)"
fill="#000000" stroke="none">
<path d="M3269 6996 c-2 -2 -42 -7 -89 -10 -102 -8 -151 -13 -199 -21 -84 -13
-261 -47 -316 -62 -33 -8 -67 -17 -75 -18 -8 -2 -46 -13 -85 -25 -38 -12 -85
-26 -104 -32 -18 -5 -75 -25 -125 -44 -1083 -409 -1892 -1320 -2175 -2449 -11
-44 -22 -91 -24 -105 -3 -14 -10 -54 -17 -90 -6 -36 -13 -76 -16 -90 -3 -14
-7 -45 -10 -70 -3 -25 -7 -56 -9 -70 -20 -111 -27 -573 -12 -710 3 -36 9 -92
13 -125 10 -103 44 -284 80 -430 199 -790 664 -1483 1319 -1966 369 -271 835
-487 1261 -584 77 -17 268 -54 307 -59 26 -3 67 -9 92 -12 129 -16 265 -22
495 -19 140 2 264 6 275 8 17 4 60 10 165 22 18 2 123 18 130 20 16 4 119 26
139 30 241 46 633 196 896 343 899 502 1536 1369 1740 2367 9 44 18 87 20 95
1 8 8 51 14 95 7 44 14 94 16 110 25 174 25 619 0 805 -2 19 -7 58 -11 85 -5
45 -23 147 -39 230 -3 17 -17 75 -31 130 -14 55 -27 107 -29 116 -8 38 -86
263 -124 357 -204 511 -568 1010 -986 1357 -33 28 -62 53 -65 56 -14 16 -231
172 -299 214 -477 297 -986 479 -1486 531 -27 3 -66 8 -85 11 -40 5 -546 14
-551 9z m446 -200 c60 -4 123 -9 140 -11 85 -12 192 -28 210 -31 11 -2 36 -7
55 -10 168 -30 458 -116 635 -189 115 -47 350 -164 421 -210 30 -19 57 -35 59
-35 3 0 49 -30 103 -67 450 -308 799 -687 1057 -1149 36 -63 65 -117 65 -120
0 -2 14 -32 31 -66 134 -273 253 -681 284 -973 4 -31 8 -66 11 -78 6 -34 16
-232 16 -337 1 -100 -11 -340 -17 -349 -1 -4 -6 -39 -9 -80 -4 -41 -9 -77 -10
-80 -2 -3 -7 -28 -10 -56 -32 -243 -167 -656 -302 -926 -263 -527 -676 -991
-1150 -1294 -49 -32 -101 -66 -116 -76 -40 -28 -320 -169 -408 -206 -140 -59
-419 -150 -510 -167 -14 -2 -56 -11 -95 -20 -38 -8 -86 -18 -105 -20 -19 -3
-44 -7 -55 -10 -96 -19 -276 -31 -480 -31 -259 0 -414 10 -540 35 -27 5 -68
12 -90 16 -22 3 -48 7 -57 10 -9 3 -27 7 -40 9 -341 63 -800 255 -1116 466
-40 27 -74 49 -77 49 -3 0 -13 6 -22 14 -10 8 -63 49 -118 92 -571 440 -984
1058 -1165 1739 -31 116 -58 237 -65 294 -2 18 -6 41 -9 50 -3 9 -7 43 -11 76
-3 33 -8 74 -10 90 -16 122 -22 462 -11 570 3 28 8 80 11 117 3 37 8 77 10 90
3 13 7 43 10 68 37 300 165 694 331 1020 93 184 291 485 391 595 10 11 33 38
52 60 159 188 402 404 626 557 369 252 740 410 1200 513 15 4 195 34 235 40
74 11 119 15 220 21 58 3 106 7 107 8 4 3 217 -2 318 -8z"/>
<path d="M2830 4494 c-44 -16 -215 -110 -500 -276 -80 -46 -226 -131 -324
-188 l-179 -104 64 -29 c35 -16 172 -91 304 -167 272 -155 297 -166 352 -151
77 21 552 298 616 359 21 21 50 62 65 92 23 47 27 68 27 140 0 97 -20 152 -80
226 -74 91 -238 137 -345 98z"/>
<path d="M4013 4499 c-152 -28 -267 -173 -266 -337 1 -50 7 -76 32 -126 55
-111 59 -115 776 -528 590 -341 587 -339 690 -339 130 0 239 73 298 200 27 56
31 78 32 147 0 68 -4 88 -28 136 -15 30 -42 69 -60 86 -27 25 -161 107 -372
227 -22 12 -170 98 -330 190 -518 300 -544 314 -592 329 -61 19 -126 25 -180
15z"/>
<path d="M1701 3828 c-88 -15 -182 -80 -229 -159 -31 -52 -51 -140 -46 -201 6
-73 54 -168 110 -217 25 -22 96 -68 157 -104 207 -118 450 -259 747 -432 162
-94 312 -179 332 -188 132 -61 300 -29 395 76 92 102 114 251 56 375 -17 37
-125 152 -143 152 -4 0 -91 48 -192 107 -101 58 -203 117 -228 131 -44 24
-121 69 -548 316 -251 145 -303 164 -411 144z"/>
<path d="M4425 3409 c-219 -116 -547 -312 -585 -351 -129 -132 -124 -347 12
-474 58 -54 117 -82 191 -90 105 -12 140 2 422 166 17 9 147 85 290 167 387
224 405 234 405 238 0 2 -118 71 -262 153 -419 238 -399 230 -473 191z"/>
</g>
</svg>
