<svg xmlns="http://www.w3.org/2000/svg" viewBox="0 0 1026.85 359.26"><defs><style>.cls-1{font-size:67.99px;font-family:Verdana;}.cls-2{letter-spacing:-0.01em;}</style></defs><g id="Layer_2" data-name="Layer 2"><g id="Layer_1-2" data-name="Layer 1"><path d="M140.82,228.68c-11.32-6.34-22.45-13-33.67-19.51C99.1,204.5,91,199.88,83,195.22c-9.37-5.42-12.4-15.37-7.38-24.2,4.77-8.42,15.14-10.87,24.31-5.6,19.17,11,38.29,22.13,57.47,33.13,6.13,3.52,9.55,8.58,9.71,14.32C167,227.65,153,235.48,140.82,228.68Zm18.06-68.9c-8.95,5.46-18,10.72-27.29,15.62-1.66.88-4.8.24-6.67-.77-8.06-4.33-15.88-9.1-23.84-13.61-2-1.12-4.16-1.87-7.25-3.23,16.76-9.66,32.47-19,48.5-27.84,8.4-4.6,18.35-1.06,22.75,7.14A17,17,0,0,1,158.88,159.78Zm68.46,63.85c-3.17,1.84-6.27,3.79-9.51,5.49-8.48,4.44-18.59,1.68-23.1-6.2a17.05,17.05,0,0,1,6.08-23.51q13.26-8,26.84-15.43a6.59,6.59,0,0,1,5.36-.1c10.61,5.79,21.06,11.87,31.88,18Zm33.23-29.25c-11.13-6-21.95-12.53-32.9-18.85-8.64-5-17.35-9.87-25.87-15.06-9.26-5.64-12.08-15.51-7.15-23.93,5.07-8.65,15.24-10.93,24.79-5.44,19.16,11,38.26,22.19,57.44,33.2,6,3.45,9.22,8.42,9.33,13.26C286.15,193,272.7,200.9,260.57,194.38Z"/><path d="M178.28,0C80.09,0-.06,80.9,0,179.87c.06,99.91,80.56,179.57,181.28,179.39,98-.17,178-81.28,177.89-180.37C359,79.64,278.47,0,178.28,0Zm2.85,349.09c-93.95.4-170.52-74.8-171-167.93-.49-94,75-170.69,168.43-171.07S348.5,85,349.07,177.6C349.65,271.84,274.38,348.7,181.13,349.09Z"/><path d="M157.36,198.55c-19.18-11-38.3-22.12-57.47-33.13-9.17-5.27-19.54-2.82-24.31,5.6-5,8.83-2,18.78,7.38,24.2,8.06,4.66,16.14,9.28,24.19,13.95,11.22,6.5,22.35,13.17,33.67,19.51,12.14,6.8,26.22-1,26.25-15.81C166.91,207.13,163.49,202.07,157.36,198.55Z"/><path d="M276.88,164.3c-19.18-11-38.28-22.16-57.44-33.2-9.55-5.49-19.72-3.21-24.79,5.44-4.93,8.42-2.11,18.29,7.15,23.93,8.52,5.19,17.23,10.07,25.87,15.06,11,6.32,21.77,12.87,32.9,18.85,12.13,6.52,25.58-1.38,25.64-16.82C286.1,172.72,282.9,167.75,276.88,164.3Z"/><path d="M142.33,130c-16,8.8-31.74,18.18-48.5,27.84,3.09,1.36,5.27,2.11,7.25,3.23,8,4.51,15.78,9.28,23.84,13.61,1.87,1,5,1.65,6.67.77,9.26-4.9,18.34-10.16,27.29-15.62a17,17,0,0,0,6.2-22.69C160.68,128.89,150.73,125.35,142.33,130Z"/><path d="M227.65,184q-13.56,7.46-26.84,15.43a17.05,17.05,0,0,0-6.08,23.51c4.51,7.88,14.62,10.64,23.1,6.2,3.24-1.7,6.34-3.65,9.51-5.49l37.55-21.71c-10.82-6.17-21.27-12.25-31.88-18A6.59,6.59,0,0,0,227.65,184Z"/><text class="cls-1" transform="translate(397.42 150.22)">Google De<tspan class="cls-2" x="353.57" y="0">v</tspan><tspan x="393.21" y="0">eloper </tspan><tspan x="0" y="81.59">Student Club</tspan></text></g></g></svg>