<svg xmlns="http://www.w3.org/2000/svg" viewBox="0 0 359.17 359.26"><defs><style>.cls-1{fill:#fff;}</style></defs><g id="Layer_2" data-name="Layer 2"><g id="Layer_1-2" data-name="Layer 1"><path class="cls-1" d="M359.17,178.89c.13,99.09-79.86,180.2-177.89,180.37C80.56,359.44.06,279.78,0,179.87-.06,80.9,80.09,0,178.28,0,278.47,0,359,79.64,359.17,178.89Zm-349,2.27c.48,93.13,77.05,168.33,171,167.93,93.25-.39,168.52-77.25,167.94-171.49C348.5,85,271.84,9.71,178.56,10.09S9.64,87.15,10.13,181.16Z"/><path class="cls-1" d="M167.07,212.87c0,14.78-14.11,22.61-26.25,15.81-11.32-6.34-22.45-13-33.67-19.51C99.1,204.5,91,199.88,83,195.22c-9.37-5.42-12.4-15.37-7.38-24.2,4.77-8.42,15.14-10.87,24.31-5.6,19.17,11,38.29,22.13,57.47,33.13C163.49,202.07,166.91,207.13,167.07,212.87Z"/><path class="cls-1" d="M286.21,177.56c-.06,15.44-13.51,23.34-25.64,16.82-11.13-6-21.95-12.53-32.9-18.85-8.64-5-17.35-9.87-25.87-15.06-9.26-5.64-12.08-15.51-7.15-23.93,5.07-8.65,15.24-10.93,24.79-5.44,19.16,11,38.26,22.19,57.44,33.2C282.9,167.75,286.1,172.72,286.21,177.56Z"/><path class="cls-1" d="M93.83,157.79c16.76-9.66,32.47-19,48.5-27.84,8.4-4.6,18.35-1.06,22.75,7.14a17,17,0,0,1-6.2,22.69c-8.95,5.46-18,10.72-27.29,15.62-1.66.88-4.8.24-6.67-.77-8.06-4.33-15.88-9.1-23.84-13.61C99.1,159.9,96.92,159.15,93.83,157.79Z"/><path class="cls-1" d="M264.89,201.92l-37.55,21.71c-3.17,1.84-6.27,3.79-9.51,5.49-8.48,4.44-18.59,1.68-23.1-6.2a17.05,17.05,0,0,1,6.08-23.51q13.26-8,26.84-15.43a6.59,6.59,0,0,1,5.36-.1C243.62,189.67,254.07,195.75,264.89,201.92Z"/></g></g></svg>