<svg xmlns="http://www.w3.org/2000/svg" viewBox="0 0 274.01 276.72"><defs><style>.cls-1{fill:#a4c8fc;}.cls-2{fill:#92bdfe;}.cls-3{opacity:0.96;}.cls-4,.cls-5{fill:#63a1fc;}.cls-5,.cls-6{opacity:0.63;}.cls-7{fill:#bdd6f9;}.cls-8{font-size:31.72px;fill:#fff;font-family:ArialRoundedMTBold, Arial Rounded MT Bold;}</style></defs><g id="Layer_2" data-name="Layer 2"><g id="Layer_1-2" data-name="Layer 1"><rect class="cls-1" x="94.21" y="144.36" width="90.24" height="132.09"/><rect class="cls-2" x="4.68" y="188.17" width="90.24" height="88.54"/><rect class="cls-2" x="183.77" y="210.23" width="90.24" height="66.22"/><g class="cls-3"><path class="cls-4" d="M122.28,98a17.55,17.55,0,0,0-13.45,5.88l27-.11A17.62,17.62,0,0,0,122.28,98Z"/><path class="cls-4" d="M135.79,103.75l-27,.11a18.51,18.51,0,0,0,27-.11Z"/><path class="cls-4" d="M128.11,92.66A14,14,0,0,0,136.17,103L132.6,80.83A12.78,12.78,0,0,0,128.11,92.66Z"/><path class="cls-4" d="M132.6,80.83,136.17,103a12.76,12.76,0,0,0,4.5-11.83A14,14,0,0,0,132.6,80.83Z"/><path class="cls-4" d="M110.47,83.85a17.6,17.6,0,0,0-14,1.54l23.88,7.25A14.68,14.68,0,0,0,110.47,83.85Z"/><path class="cls-4" d="M120.35,92.64,96.47,85.39c1.38,3.91,4.93,7.28,9.88,8.79A17.6,17.6,0,0,0,120.35,92.64Z"/><path class="cls-4" d="M117.16,80.17a12.82,12.82,0,0,0,3.73,12.25l5.16-22.26A14.52,14.52,0,0,0,117.16,80.17Z"/><path class="cls-4" d="M126.05,70.16l-5.16,22.26a14.52,14.52,0,0,0,8.9-10A12.79,12.79,0,0,0,126.05,70.16Z"/><path class="cls-4" d="M104,65a18.2,18.2,0,0,0-14.41-2.89l20.51,14.65C110.33,72.5,108.22,68.06,104,65Z"/><path class="cls-4" d="M110.07,76.79,89.56,62.14c-.27,4.29,1.84,8.72,6.09,11.76A18.26,18.26,0,0,0,110.07,76.79Z"/><path class="cls-4" d="M111.5,62.64a13.41,13.41,0,0,0-1.41,13.55L124.72,55.4A17.76,17.76,0,0,0,111.5,62.64Z"/><path class="cls-4" d="M124.72,55.4,110.09,76.19A17.72,17.72,0,0,0,123.31,69,13.43,13.43,0,0,0,124.72,55.4Z"/><path class="cls-4" d="M101.75,43.4a17.72,17.72,0,0,0-13.7-5.1L105.4,56A13.08,13.08,0,0,0,101.75,43.4Z"/><path class="cls-4" d="M105.4,56,88.05,38.3a13.09,13.09,0,0,0,3.66,12.6A17.71,17.71,0,0,0,105.4,56Z"/><path class="cls-4" d="M109.23,44.2a13.27,13.27,0,0,0-4,12.65l17.93-17.56A18,18,0,0,0,109.23,44.2Z"/><path class="cls-4" d="M123.18,39.29,105.25,56.85a18,18,0,0,0,14-4.91A13.27,13.27,0,0,0,123.18,39.29Z"/><path class="cls-4" d="M104.46,24.38A16.72,16.72,0,0,0,91.93,17.8l14.13,19.28A12.63,12.63,0,0,0,104.46,24.38Z"/><path class="cls-4" d="M106.06,37.08,91.93,17.8a12.58,12.58,0,0,0,1.59,12.69A16.72,16.72,0,0,0,106.06,37.08Z"/><path class="cls-4" d="M111.56,26.07A12.93,12.93,0,0,0,106,37.42l19.35-14.34A17.39,17.39,0,0,0,111.56,26.07Z"/><path class="cls-4" d="M125.31,23.08,106,37.42a17.43,17.43,0,0,0,13.75-3A13,13,0,0,0,125.31,23.08Z"/><path class="cls-4" d="M114.11,11.82A76.51,76.51,0,0,0,106.32,33a75.61,75.61,0,0,0-1.24,22.21,73.4,73.4,0,0,0,5.31,21.48,49.11,49.11,0,0,0,12.16,17.82c5.68,5.1,12.57,8.61,19.4,11.9l2.59,1.24c.11.06.21-.11.1-.17-6.84-3.26-13.79-6.55-19.77-11.27A46.94,46.94,0,0,1,111.62,79a71.61,71.61,0,0,1-6.07-21.27A75.1,75.1,0,0,1,106,35.6,76,76,0,0,1,113,14.43c.43-.85.87-1.68,1.32-2.51.06-.12-.11-.22-.17-.1Z"/><path class="cls-4" d="M119.75,13a13.06,13.06,0,0,0-2.29-13l-8.14,22.4A15.66,15.66,0,0,0,119.75,13Z"/><path class="cls-4" d="M109.32,22.4,117.46,0A15.64,15.64,0,0,0,107,9.44,13,13,0,0,0,109.32,22.4Z"/><path class="cls-4" d="M156.34,98a17.55,17.55,0,0,1,13.44,5.88l-26.95-.11A17.62,17.62,0,0,1,156.34,98Z"/><path class="cls-4" d="M142.83,103.75l26.95.11a18.5,18.5,0,0,1-26.95-.11Z"/><path class="cls-4" d="M150.51,92.66A14,14,0,0,1,142.44,103L146,80.83A12.78,12.78,0,0,1,150.51,92.66Z"/><path class="cls-4" d="M146,80.83,142.44,103A12.78,12.78,0,0,1,138,91.12,14,14,0,0,1,146,80.83Z"/><path class="cls-4" d="M168.15,83.85a17.6,17.6,0,0,1,14,1.54l-23.88,7.25C159.64,88.72,163.2,85.35,168.15,83.85Z"/><path class="cls-4" d="M158.27,92.64l23.88-7.25c-1.38,3.91-4.94,7.28-9.88,8.79A17.6,17.6,0,0,1,158.27,92.64Z"/><path class="cls-4" d="M161.46,80.17a12.83,12.83,0,0,1-3.74,12.25l-5.16-22.26A14.51,14.51,0,0,1,161.46,80.17Z"/><path class="cls-4" d="M152.56,70.16l5.16,22.26a14.55,14.55,0,0,1-8.9-10A12.81,12.81,0,0,1,152.56,70.16Z"/><path class="cls-4" d="M174.65,65a18.2,18.2,0,0,1,14.41-2.89L168.55,76.79C168.29,72.5,170.4,68.06,174.65,65Z"/><path class="cls-4" d="M168.55,76.79l20.51-14.65c.26,4.29-1.85,8.72-6.1,11.76A18.23,18.23,0,0,1,168.55,76.79Z"/><path class="cls-4" d="M167.11,62.64a13.41,13.41,0,0,1,1.42,13.55L153.9,55.4A17.74,17.74,0,0,1,167.11,62.64Z"/><path class="cls-4" d="M153.9,55.4l14.63,20.79A17.7,17.7,0,0,1,155.31,69,13.43,13.43,0,0,1,153.9,55.4Z"/><path class="cls-4" d="M176.87,43.4a17.71,17.71,0,0,1,13.7-5.1L173.21,56A13.06,13.06,0,0,1,176.87,43.4Z"/><path class="cls-4" d="M173.21,56,190.57,38.3a13.11,13.11,0,0,1-3.66,12.6A17.74,17.74,0,0,1,173.21,56Z"/><path class="cls-4" d="M169.39,44.2a13.24,13.24,0,0,1,4,12.65L155.44,39.29A18,18,0,0,1,169.39,44.2Z"/><path class="cls-4" d="M155.44,39.29l17.92,17.56a18,18,0,0,1-13.94-4.91A13.25,13.25,0,0,1,155.44,39.29Z"/><path class="cls-4" d="M174.15,24.38a16.74,16.74,0,0,1,12.54-6.58L172.56,37.08A12.63,12.63,0,0,1,174.15,24.38Z"/><path class="cls-4" d="M172.56,37.08,186.69,17.8a12.61,12.61,0,0,1-1.59,12.69A16.72,16.72,0,0,1,172.56,37.08Z"/><path class="cls-4" d="M167.06,26.07a13,13,0,0,1,5.6,11.35L153.31,23.08A17.4,17.4,0,0,1,167.06,26.07Z"/><path class="cls-4" d="M153.31,23.08l19.35,14.34a17.43,17.43,0,0,1-13.75-3A12.93,12.93,0,0,1,153.31,23.08Z"/><path class="cls-4" d="M164.34,11.92a76.55,76.55,0,0,1,7.75,21A75.43,75.43,0,0,1,173.36,55a73.46,73.46,0,0,1-5.26,21.44,48.94,48.94,0,0,1-12.3,18c-5.64,5-12.47,8.5-19.23,11.76L134,107.46c-.12.06,0,.23.1.17C141,104.35,147.94,101,154,96.27a47,47,0,0,0,13.28-17.34,72.24,72.24,0,0,0,6-21.07,74.77,74.77,0,0,0-.44-22.15,76,76,0,0,0-7-21.38c-.42-.85-.86-1.68-1.31-2.51a.1.1,0,1,0-.17.1Z"/><path class="cls-4" d="M158.87,13a13,13,0,0,1,2.29-13l8.13,22.4A15.65,15.65,0,0,1,158.87,13Z"/><path class="cls-4" d="M169.29,22.4,161.16,0a15.66,15.66,0,0,1,10.43,9.44A13,13,0,0,1,169.29,22.4Z"/><path class="cls-4" d="M153.35,40.6c-.76,1.61-1.53,3.39-2.3,5.32a45.77,45.77,0,0,0-24.88-3.47c-.29-.64-.57-1.26-.85-1.85Z"/><path class="cls-4" d="M151.05,45.92a88.25,88.25,0,0,0-6,25.53,11.76,11.76,0,0,1-5.71,2.09,11.94,11.94,0,0,1-5.72-.93h0A85.29,85.29,0,0,0,131.9,60c.56.19,1.13.37,1.7.51a7.69,7.69,0,0,0,5,0,5.48,5.48,0,0,0,3-5.37,8.56,8.56,0,0,0-3-5.63,12.38,12.38,0,0,0-10.64-2.76c-.58-1.5-1.17-2.92-1.75-4.25A45.77,45.77,0,0,1,151.05,45.92Z"/><path class="cls-4" d="M122.26,34.68l.95.16a42.93,42.93,0,0,0,27.45-4.94h8.76s-.42.57-1.11,1.65h0l-2.82,4.8-.22.41H123.4c-.05-.08-.09-.16-.13-.24l-.13-.24Z"/><path class="cls-4" d="M120.36,31.55q-.14-.23-.27-.42c-.53-.81-.84-1.23-.84-1.23h31.41a42.93,42.93,0,0,1-27.45,4.94l-.95-.16Z"/><path class="cls-4" d="M157.91,37.74a1.15,1.15,0,0,1,0,.19,2.86,2.86,0,0,1-2.85,2.67H123.62a2.87,2.87,0,0,1-2.85-2.67c0-.06,0-.12,0-.19a1,1,0,0,1,.29-.69,1,1,0,0,1,.7-.29h35.32l.08,0h.06l.07,0,.07,0,.12.07.08,0a.46.46,0,0,0,.07.07l0,.05,0,.06a.86.86,0,0,1,.1.16.36.36,0,0,1,0,.11l0,0a.36.36,0,0,1,0,.11.09.09,0,0,1,0,.05v.11Z"/><path class="cls-4" d="M145,82.4l0-.06c-1.25-2.35-3.3-3.88-5.6-3.88a6,6,0,0,0-4.57,2.34,9.44,9.44,0,0,0-1,1.54l0,.1-.06,0a11.64,11.64,0,0,0-1.25,5.36,10.34,10.34,0,0,0,3.21,7.85,5.41,5.41,0,0,0,7.35,0,10.34,10.34,0,0,0,3.21-7.85A11.64,11.64,0,0,0,145,82.4Zm-5.63,11.67c-2.59,0-4.68-2.83-4.68-6.32s2.09-6.31,4.68-6.31S144,84.27,144,87.75,141.92,94.07,139.34,94.07Z"/><path class="cls-5" d="M131.06,38.68c0,.71-1.4,1.29-3.14,1.29s-3.14-.58-3.14-1.29,1.41-1.3,3.14-1.3S131.06,38,131.06,38.68Z"/><path class="cls-4" d="M142.5,114a10,10,0,0,0-1.57-9.36,14.46,14.46,0,0,0-6.75-4.64c.72-2,1.23-3.56,1.48-4.41a5.41,5.41,0,0,0,7.35,0c.92,3.08,5.2,16.46,11.13,18.41Z"/><path class="cls-4" d="M142.5,114h-18c4.31-1.41,7.74-8.85,9.65-14a14.46,14.46,0,0,1,6.75,4.64A10,10,0,0,1,142.5,114Z"/><path class="cls-4" d="M157,116.69v.12a1,1,0,0,1-1,1H122.64a1,1,0,0,1-1-1v-.12a2.67,2.67,0,0,1,2.66-2.67h30A2.67,2.67,0,0,1,157,116.69Z"/><path class="cls-4" d="M114.85,29.21c0,1.32-.07,2.64-.17,3.95a12.52,12.52,0,0,0-5.63-.36c-1.46,4.31-.18,9.06,1.37,13.36.29.8.59,1.58.91,2.37h0a22.1,22.1,0,0,1-2.19,4.54c-.57-1.18-1.12-2.36-1.63-3.56-2.21-5.19-3.5-10.64-2.82-16.25.13-1.1.2-2.45.42-3.52,1-.13,2.23-.23,3.27-.31A34.53,34.53,0,0,1,114.85,29.21Z"/><path class="cls-4" d="M123.4,36.76h-1.65a1,1,0,0,0-.7.29,1,1,0,0,0-.29.69c0,.07,0,.13,0,.19a11,11,0,0,0-4.91-4.32c-.41-.17-.81-.32-1.18-.45.1-1.31.15-2.63.17-3.95a10.89,10.89,0,0,1,3.84,1.05,13.78,13.78,0,0,1,1.67,1.29c.51.78,1.16,1.83,1.9,3.13l.88,1.6.13.24C123.31,36.6,123.35,36.68,123.4,36.76Z"/><path class="cls-4" d="M133.73,82.34l0,.06a87.16,87.16,0,0,1-9.26-8.05h0a80.51,80.51,0,0,1-15.3-21.27,22.1,22.1,0,0,0,2.19-4.54,82.39,82.39,0,0,0,22.44,31.41c0,.33,0,.66,0,1A3.27,3.27,0,0,0,133.73,82.34Z"/><path class="cls-4" d="M144.94,80.93a3.27,3.27,0,0,1,0,1.41c-1.25-2.35-3.3-3.88-5.6-3.88a6,6,0,0,0-4.57,2.34,9.44,9.44,0,0,0-1,1.54,3.27,3.27,0,0,1,0-1.41c0-.33,0-.66,0-1,.08-2.51,0-5-.11-7.33a11.94,11.94,0,0,0,5.72.93,11.76,11.76,0,0,0,5.71-2.09,81.88,81.88,0,0,0-.19,8.49C144.91,80.27,144.93,80.6,144.94,80.93Z"/><path class="cls-4" d="M171.2,49.4a.49.49,0,0,1,0,.11,79.45,79.45,0,0,1-16.93,24.83h0A87.16,87.16,0,0,1,145,82.4l0-.06a3.27,3.27,0,0,0,0-1.41c0-.33,0-.66,0-1a82.15,82.15,0,0,0,23.35-33.78c.09-.26.19-.53.28-.8C169.38,46.74,170.27,48.08,171.2,49.4Z"/><path class="cls-4" d="M171.2,49.4c-.93-1.32-1.82-2.66-2.67-4,1.42-4.08,2.46-8.51,1.09-12.56a11.9,11.9,0,0,0-6.81.81l-.31.14c-.55-1.29-1.06-2.59-1.55-3.91,2.88-1.06,6.08-.71,9.34-.41,1,.08,2.25.18,3.27.31.22,1.07.29,2.42.43,3.52C174.65,38.83,173.39,44.25,171.2,49.4Z"/><path class="cls-4" d="M158.31,31.55h0A13.88,13.88,0,0,1,160,30.26a9,9,0,0,1,1-.42c.49,1.32,1,2.62,1.55,3.91a11,11,0,0,0-4.6,4.18,1.15,1.15,0,0,0,0-.19v-.11a.09.09,0,0,0,0-.05.36.36,0,0,0,0-.11l0,0a.36.36,0,0,0,0-.11.86.86,0,0,0-.1-.16l0-.06,0-.05h0a.46.46,0,0,1-.07-.07l-.08,0-.12-.07-.07,0-.07,0h-.06l-.08,0h-1.8l.22-.41Z"/><path class="cls-4" d="M127.92,46.7a12.38,12.38,0,0,1,10.64,2.76,8.56,8.56,0,0,1,3,5.63,5.48,5.48,0,0,1-3,5.37,7.69,7.69,0,0,1-5,0c-.57-.14-1.14-.32-1.7-.51Z"/><path class="cls-5" d="M136.68,53.67c.27,1.94-.52,3.66-1.77,3.83s-2.49-1.25-2.76-3.19.52-3.66,1.77-3.83S136.41,51.73,136.68,53.67Z"/><path class="cls-5" d="M137.58,109.77c0,1.13-1.27,2-2.83,2s-2.83-.92-2.83-2,1.27-2.06,2.83-2.06S137.58,108.63,137.58,109.77Z"/><path class="cls-4" d="M160,118.41a1.72,1.72,0,0,0-1.06-.36H119.83a1.7,1.7,0,0,0-1.06.36L110.09,125a1.75,1.75,0,0,0-.7,1.39v13.4h60v-13.4a1.75,1.75,0,0,0-.7-1.39Z"/><path class="cls-4" d="M171.78,144.34H107v-.52a4,4,0,0,1,4-4h56.8a4,4,0,0,1,4,4Z"/><rect class="cls-4" x="128.81" y="126.6" width="21.12" height="10.1" rx="1.89"/><path class="cls-4" d="M144,87.75c0,3.49-2.1,6.32-4.68,6.32s-4.68-2.83-4.68-6.32,2.09-6.31,4.68-6.31S144,84.27,144,87.75Z"/><path class="cls-4" d="M142,86.8c0,2.49-1.49,4.51-3.34,4.51s-3.35-2-3.35-4.51,1.5-4.51,3.35-4.51S142,84.31,142,86.8Z"/><path class="cls-5" d="M140.52,85.91a1.91,1.91,0,1,1-1.91-1.84A1.88,1.88,0,0,1,140.52,85.91Z"/></g><g class="cls-3"><path class="cls-4" d="M57,129.2a3.75,3.75,0,0,1-2,3.05,6.32,6.32,0,0,1-.56.33,9.18,9.18,0,0,1-4.16.94H43.19a9.25,9.25,0,0,1-3.83-.79c-1.71-.78-2.84-2.08-2.84-3.53a3.78,3.78,0,0,1,2-3.06,8.81,8.81,0,0,1,4.71-1.27h7.13C54,124.87,57,126.82,57,129.2Z"/><path class="cls-4" d="M71.3,92.53H22.22a20.71,20.71,0,0,1,2-1.49l16.4-.67a6.89,6.89,0,0,0,3.06-.6,2.59,2.59,0,0,0,1.37-2H58.74a1.13,1.13,0,0,0,1.07-.8A28.8,28.8,0,0,1,71.3,92.53Z"/><path class="cls-4" d="M45,87.8a2.59,2.59,0,0,1-1.37,2,6.89,6.89,0,0,1-3.06.6L24.19,91a32.23,32.23,0,0,1,9.52-4,1.13,1.13,0,0,0,1.07.8Z"/><path class="cls-4" d="M75,98.2C73.52,112.57,62.53,123.91,48.86,125h-4.2a28.36,28.36,0,0,1-23-15.91,53.59,53.59,0,0,0,17.48,3.41,8.29,8.29,0,0,0,7.6,5.78c4.05,0,7.41-3.33,8.09-7.7.75-.21,1.49-.44,2.23-.68a38.56,38.56,0,0,0,12.68-6.75,27.79,27.79,0,0,0,4.65-4.92Z"/><path class="cls-4" d="M77.23,95.29v.15A2.77,2.77,0,0,1,75,98.15a2.24,2.24,0,0,1-.52,0H19.05a2.21,2.21,0,0,1-.51,0,2.74,2.74,0,0,1-2.25-2.68l3.22.25a194.57,194.57,0,0,0,21.87.3,15.2,15.2,0,0,0,5.45-.92,6.15,6.15,0,0,0,2.92-2.57H74.46a2.76,2.76,0,0,1,2.77,2.76Z"/><path class="cls-4" d="M59.86,85.22v1.46a1.13,1.13,0,0,1-1.12,1.12h-24a1.13,1.13,0,0,1-1.12-1.12V85.22a1.13,1.13,0,0,1,1.12-1.12h24A1.13,1.13,0,0,1,59.86,85.22Z"/><path class="cls-4" d="M56.9,75.67a.85.85,0,0,1-.86.85H37.33a.86.86,0,0,1-.86-.85.85.85,0,0,1,.86-.86H56A.87.87,0,0,1,56.9,75.67Z"/><path class="cls-4" d="M38.81,78.53c.52-1.9-.71-2-.71-2H55.27s-2,.18.21,4.07A75.91,75.91,0,0,0,38.81,78.53Z"/><path class="cls-4" d="M57.93,84.1H35.44c2.14-2.71,3.06-4.45,3.37-5.57a75.91,75.91,0,0,1,16.67,2.06h0A30.82,30.82,0,0,0,57.93,84.1Z"/><path class="cls-4" d="M55,108.92a10.87,10.87,0,0,1-.12,1.63c-.68,4.37-4,7.7-8.09,7.7a8.29,8.29,0,0,1-7.6-5.78,10.34,10.34,0,0,1-.62-3.55c0-.15,0-.31,0-.46a11,11,0,0,0,2.78-.61,6.35,6.35,0,0,0-.08,1.07c0,3.46,2.46,6.26,5.51,6.26s5.51-2.8,5.51-6.26A6.72,6.72,0,0,0,51,105a8.27,8.27,0,0,0,2.39-1.51A10.12,10.12,0,0,1,55,108.92Z"/><path class="cls-4" d="M49.75,92.53a6.15,6.15,0,0,1-2.92,2.57,15.2,15.2,0,0,1-5.45.92,194.57,194.57,0,0,1-21.87-.3l-3.22-.25v-.18a2.77,2.77,0,0,1,2.76-2.76Z"/><path class="cls-4" d="M53.42,103.46A8.27,8.27,0,0,1,51,105a5.27,5.27,0,0,0-4.27-2.31,5.77,5.77,0,0,0-5.43,5.19,11,11,0,0,1-2.78.61c.22-4.94,3.81-8.86,8.21-8.86A8,8,0,0,1,53.42,103.46Z"/><path class="cls-4" d="M74.41,98.2a27.79,27.79,0,0,1-4.65,4.92,38.56,38.56,0,0,1-12.68,6.75c-.74.24-1.48.47-2.23.68a10.87,10.87,0,0,0,.12-1.63,10.12,10.12,0,0,0-1.55-5.46,8,8,0,0,0-6.66-3.86c-4.4,0-8,3.92-8.21,8.86,0,.15,0,.31,0,.46a10.34,10.34,0,0,0,.62,3.55,53.59,53.59,0,0,1-17.48-3.41,31,31,0,0,1-2.9-9c-.1-.62-.19-1.25-.25-1.89Z"/><path class="cls-4" d="M66.24,162.84A4.27,4.27,0,0,1,62,167.11H31.55a4.28,4.28,0,0,1-4.27-4.27,4.58,4.58,0,0,1,0-.53,77.41,77.41,0,0,0,14.28.13,15.39,15.39,0,0,0,5.7-1.29,6.91,6.91,0,0,0,2.85-2.58H62A4.28,4.28,0,0,1,66.24,162.84Z"/><path class="cls-4" d="M53.32,137.79a4.27,4.27,0,0,1-1.26,3,2.74,2.74,0,0,1-.36.32,4.23,4.23,0,0,1-2.66.94H44.48a4.28,4.28,0,0,1,0-8.55H49A4.29,4.29,0,0,1,53.32,137.79Z"/><path class="cls-4" d="M60.14,158.57H55.32a19.7,19.7,0,0,0-16-14.21c1.1-1.38,2.09-2.45,2.69-3.07a4.26,4.26,0,0,0,2.46.78H49a4.23,4.23,0,0,0,2.66-.94C53.61,143.08,61,151.12,60.14,158.57Z"/><path class="cls-4" d="M55.32,158.57H33.73c-.6-5.21,2.83-10.71,5.6-14.21a19.7,19.7,0,0,1,16,14.21Z"/><path class="cls-4" d="M36.88,127.69h0l-.16,2.6h0a5.71,5.71,0,0,1-2.07,3.16,3,3,0,0,1-.48.31,4.65,4.65,0,0,1-5.07-.46h0A2.35,2.35,0,0,1,28,131.25a2.83,2.83,0,0,1,2-2.43,3.84,3.84,0,0,1,3.2.56,5.94,5.94,0,0,1,1.92,2.21,6.86,6.86,0,0,0,0-1.92,10.61,10.61,0,0,0-3.81-6.37,31.23,31.23,0,0,0-6.53-3.85L10,112.18c-2.69-1.32-5.49-2.73-7.32-5.15C.53,104.17.07,100.35,0,96.74q1.71,0,3.42,0l4,0h.08l3.84,0h.09c1.72,0,3.43,0,5.14,0a2.8,2.8,0,0,0,1.94,1.43v0c.06.64.15,1.27.25,1.89H3.65A12.81,12.81,0,0,0,6,106.37c1.74,2.26,4.41,3.59,7,4.83L27,118c2.15,1,4.4,2,6.16,3.63s3.33,3.59,3.69,6Z"/><path class="cls-4" d="M56.55,127.68a4.25,4.25,0,0,1,.3,1.56,4.42,4.42,0,0,1-.13,1h0a5.68,5.68,0,0,0,2.06,3.16,3.94,3.94,0,0,0,.48.31,4.63,4.63,0,0,0,5.07-.47h0a2.32,2.32,0,0,0,1.09-2,2.83,2.83,0,0,0-2-2.43,3.88,3.88,0,0,0-3.2.55,6.07,6.07,0,0,0-1.92,2.22,7.26,7.26,0,0,1,0-1.92,10.67,10.67,0,0,1,3.87-6.35,30.89,30.89,0,0,1,6.47-3.87l14.75-7.27c2.7-1.33,5.49-2.74,7.32-5.15,2.17-2.86,2.63-6.68,2.7-10.29-1.14,0-2.28,0-3.42,0-1.35,0-2.69,0-4,0H85.9l-3.84,0H82c-1.71,0-3.43,0-5.14,0a2.79,2.79,0,0,1-1.94,1.44v0c-.06.64-.15,1.27-.25,1.89H89.78a12.81,12.81,0,0,1-2.34,6.28c-1.74,2.26-4.4,3.58-7,4.83l-14,6.81a29.51,29.51,0,0,0-6.16,3.63,9.93,9.93,0,0,0-3.69,6l0,.1Z"/><path class="cls-4" d="M50.14,158.57a6.91,6.91,0,0,1-2.85,2.58,15.39,15.39,0,0,1-5.7,1.29,77.41,77.41,0,0,1-14.28-.13,4.27,4.27,0,0,1,4.24-3.74Z"/><path class="cls-5" d="M28.66,94c0,.55-.89,1-2,1s-2-.45-2-1a.57.57,0,0,1,0-.18c.16-.47,1-.83,2-.83a3,3,0,0,1,1.53.37A.82.82,0,0,1,28.66,94Z"/><path class="cls-5" d="M41.09,150.32c-.5,1.85-1.68,3.14-2.65,2.88s-1.35-2-.86-3.82a5.22,5.22,0,0,1,.18-.56c.56-1.54,1.6-2.55,2.46-2.32.55.14.91.75,1,1.59A5.63,5.63,0,0,1,41.09,150.32Z"/><path class="cls-5" d="M34.44,89.49c0,.37-1.16.67-2.59.67s-2.58-.3-2.58-.67a.15.15,0,0,1,0-.11,4,4,0,0,1,2.54-.56,7.16,7.16,0,0,1,2,.25C34.22,89.18,34.44,89.33,34.44,89.49Z"/><path class="cls-5" d="M29.27,102.14c0,1.37-.79,2.48-1.77,2.48s-1.76-1.11-1.76-2.48c0-.14,0-.28,0-.42.15-1.17.87-2.06,1.74-2.06a1.63,1.63,0,0,1,1.37.92A3.09,3.09,0,0,1,29.27,102.14Z"/><path class="cls-4" d="M16.75,183.58H76.68a4,4,0,0,1,4,4v.52a0,0,0,0,1,0,0H12.78a0,0,0,0,1,0,0v-.52a4,4,0,0,1,4-4Z"/><path class="cls-4" d="M30.6,166.52H62.73A9.22,9.22,0,0,1,72,175.73v7.84a0,0,0,0,1,0,0H21.39a0,0,0,0,1,0,0v-7.84A9.22,9.22,0,0,1,30.6,166.52Z"/><rect class="cls-4" x="34.4" y="175.05" width="24.49" height="4.2" rx="1.86"/><path class="cls-4" d="M52.27,108.92c0,3.46-2.47,6.26-5.51,6.26s-5.51-2.8-5.51-6.26a6.35,6.35,0,0,1,.08-1.07,5.77,5.77,0,0,1,5.43-5.19A5.27,5.27,0,0,1,51,105,6.72,6.72,0,0,1,52.27,108.92Z"/><path class="cls-4" d="M49.41,107.34A3.68,3.68,0,0,1,46,111.23a3.68,3.68,0,0,1-3.42-3.89,4.77,4.77,0,0,1,0-.66A3.59,3.59,0,0,1,46,103.46a3.29,3.29,0,0,1,2.66,1.43A4.2,4.2,0,0,1,49.41,107.34Z"/><path class="cls-5" d="M47.35,106.63a1.78,1.78,0,1,1-3.53,0,2.07,2.07,0,0,1,0-.35,1.84,1.84,0,0,1,1.74-1.66,1.71,1.71,0,0,1,1.37.74A2.25,2.25,0,0,1,47.35,106.63Z"/></g><g class="cls-3"><path class="cls-4" d="M255.55,118.19a26.26,26.26,0,0,1-43.9,18.14,34.49,34.49,0,0,1-1.62-3.54,38.71,38.71,0,0,1-2-6.75,41.75,41.75,0,0,1-.73-7.75v-.1h3.87A23.27,23.27,0,0,0,215,130.41c2.75,3.89,7.58,6.55,12.27,5.73,4-.71,7.31-3.82,9-7.53a22.1,22.1,0,0,0,1.64-10.42Z"/><path class="cls-4" d="M260.05,118.29a40.89,40.89,0,0,1-.72,7.67c-.21,1.14-.48,2.26-.79,3.35s-.64,2.07-1,3.06c-2.89,7.61-8,13.61-14.36,16.65a21.59,21.59,0,0,1-18.95,0,28.52,28.52,0,0,1-12.57-12.69,26.26,26.26,0,0,0,43.9-18.14h4.5Z"/><path class="cls-4" d="M253.44,184v.35h-5.08a33.48,33.48,0,0,0-22.15-10.05,28.51,28.51,0,0,0,1.94-3.57c.19-.55.37-1.1.52-1.65a5.43,5.43,0,0,0,10.05,0c.16.55.33,1.1.53,1.65,0,0,4.64,10.91,12.4,11.38A1.9,1.9,0,0,1,253.44,184Z"/><path class="cls-4" d="M248.36,184.33H214V184a1.9,1.9,0,0,1,1.8-1.89c4.81-.29,8.41-4.59,10.46-7.81A33.48,33.48,0,0,1,248.36,184.33Z"/><path class="cls-4" d="M243.17,149a23.1,23.1,0,0,0-4.92,10.09,5.28,5.28,0,0,0-9.11,0A22.88,22.88,0,0,0,224.22,149a21.59,21.59,0,0,0,18.95,0Z"/><rect class="cls-4" x="211.96" y="184.33" width="43.47" height="3.33" rx="1.46"/><rect class="cls-4" x="204.52" y="114.72" width="58.36" height="3.48" rx="1.46"/><path class="cls-4" d="M228.6,168.94a4.77,4.77,0,0,1-4.81-1.06,2.67,2.67,0,0,1-.89-2,1.9,1.9,0,0,1,1-1.52,1.85,1.85,0,0,1,.5-.17c-8-5.13-15.73-10.71-22.19-17.66-2.38-2.55-4.61-5.37-5.64-8.71s-.61-7.29,1.8-9.81a9.31,9.31,0,0,1,8.85-2.24,8.89,8.89,0,0,1,.88.26,38.71,38.71,0,0,0,2,6.75,2.14,2.14,0,0,1-1.21.3,2.81,2.81,0,0,1-1.94-1.12,14.59,14.59,0,0,1-1.51-3.16,6.76,6.76,0,0,0-4.37,1.82,7.86,7.86,0,0,0-1.64,7.61,18.32,18.32,0,0,0,4.19,6.94c6.74,7.71,15.4,13.43,24,19a2.53,2.53,0,0,0,0,.28,10,10,0,0,0,.17,1.83A9.23,9.23,0,0,0,228.6,168.94Z"/><path class="cls-4" d="M233.7,169.19c-2,0-3.65-2.11-3.65-4.72s1.63-4.72,3.65-4.72,3.65,2.11,3.65,4.72S235.71,169.19,233.7,169.19Zm5-.14a9,9,0,0,0,1-2.9,9.22,9.22,0,0,0,.14-1.68c0-.14,0-.28,0-.42h0a9.18,9.18,0,0,0-1.59-4.94,5.28,5.28,0,0,0-9.11,0,9.28,9.28,0,0,0-1.59,5.08,2.53,2.53,0,0,0,0,.28,10,10,0,0,0,.17,1.83,9.23,9.23,0,0,0,.89,2.64l.07.12a5.43,5.43,0,0,0,10.05,0Z"/><g class="cls-6"><path class="cls-4" d="M227.58,180.14c-.74,1.2-2,1.8-2.7,1.34s-.77-1.81,0-3,1.94-1.8,2.7-1.34S228.32,178.94,227.58,180.14Z"/></g><path class="cls-4" d="M270.64,137.83c-1,3.34-3.26,6.16-5.63,8.71-6.48,7-14.21,12.56-22.26,17.7a2,2,0,0,1,.34.13,1.91,1.91,0,0,1,1,1.52,2.68,2.68,0,0,1-.9,2,4.76,4.76,0,0,1-4.44,1.17,9,9,0,0,0,1-2.9,10.2,10.2,0,0,0,.14-1.68c0-.14,0-.28,0-.42h0c8.53-5.53,17.11-11.22,23.79-18.87a18.32,18.32,0,0,0,4.19-6.94,7.84,7.84,0,0,0-1.64-7.61,6.66,6.66,0,0,0-4-1.79,11.21,11.21,0,0,1-1.35,2.81,2.83,2.83,0,0,1-1.95,1.12,2.11,2.11,0,0,1-1.35-.4c.37-1,.71-2,1-3.06s.58-2.21.79-3.35c.22-.06.44-.13.67-.18a9.33,9.33,0,0,1,8.85,2.24C271.26,130.54,271.67,134.5,270.64,137.83Z"/><path class="cls-4" d="M236.22,128.61c-1.69,3.71-5,6.82-9,7.53-4.69.82-9.52-1.84-12.27-5.73a23.27,23.27,0,0,1-3.74-12.22h26.65A22.1,22.1,0,0,1,236.22,128.61Z"/><g class="cls-6"><path class="cls-4" d="M224.56,125.52c0,3.22-1.86,5.82-4.09,5.8s-4-2.64-4-5.86,1.86-5.82,4.1-5.81S224.58,122.29,224.56,125.52Z"/></g><g class="cls-6"><path class="cls-4" d="M232.07,130.65a2,2,0,1,1-2-2.09A2.06,2.06,0,0,1,232.07,130.65Z"/></g><path class="cls-4" d="M205.72,207.16h55.75a1.62,1.62,0,0,1,1.62,1.62v1.45a0,0,0,0,1,0,0h-59a0,0,0,0,1,0,0v-1.45A1.62,1.62,0,0,1,205.72,207.16Z"/><rect class="cls-4" x="211.22" y="187.66" width="44.74" height="3.07" rx="0.81"/><polygon class="cls-4" points="259.83 207.16 207.35 207.16 213.11 190.73 254.08 190.73 259.83 207.16"/><rect class="cls-4" x="223.5" y="194.97" width="20.18" height="7.56"/><path class="cls-4" d="M237.35,164.47c0,2.61-1.64,4.72-3.65,4.72s-3.65-2.11-3.65-4.72,1.63-4.72,3.65-4.72S237.35,161.86,237.35,164.47Z"/><path class="cls-4" d="M236.26,163.77c0,2.22-1.39,4-3.11,4s-3.1-1.8-3.1-4,1.39-4,3.1-4S236.26,161.55,236.26,163.77Z"/><g class="cls-6"><path class="cls-4" d="M234.26,162.8a1.55,1.55,0,1,1-1.55-1.66A1.61,1.61,0,0,1,234.26,162.8Z"/></g></g><circle class="cls-7" cx="49.8" cy="228.52" r="21.7"/><text class="cls-8" transform="translate(40.26 237.78)">2</text><circle class="cls-7" cx="139.33" cy="190.76" r="21.7"/><text class="cls-8" transform="translate(130.11 201.06)">1</text><circle class="cls-7" cx="228.89" cy="241.44" r="21.7"/><text class="cls-8" transform="translate(219.96 252.37)">3</text></g></g></svg>